<?xml version="1.0" encoding="UTF-8" standalone="no"?>
<!-- Created with Inkscape (http://www.inkscape.org/) -->

<svg
   version="1.1"
   id="svg2"
   width="606.66669"
   height="606.66669"
   viewBox="0 0 606.66669 606.66669"
   sodipodi:docname="tim_logo_tr.ai"
   xmlns:inkscape="http://www.inkscape.org/namespaces/inkscape"
   xmlns:sodipodi="http://sodipodi.sourceforge.net/DTD/sodipodi-0.dtd"
   xmlns="http://www.w3.org/2000/svg"
   xmlns:svg="http://www.w3.org/2000/svg">
  <defs
     id="defs6">
    <clipPath
       clipPathUnits="userSpaceOnUse"
       id="clipPath20">
      <path
         d="M 0,455 H 455 V 0 H 0 Z"
         id="path18" />
    </clipPath>
  </defs>
  <sodipodi:namedview
     id="namedview4"
     pagecolor="#ffffff"
     bordercolor="#000000"
     borderopacity="0.25"
     inkscape:showpageshadow="2"
     inkscape:pageopacity="0.0"
     inkscape:pagecheckerboard="0"
     inkscape:deskcolor="#d1d1d1" />
  <g
     id="g8"
     inkscape:groupmode="layer"
     inkscape:label="tim_logo_tr"
     transform="matrix(1.3333333,0,0,-1.3333333,0,606.66667)">
    <g
       id="g10"
       transform="translate(215.3452,252.415)">
      <path
         d="m 0,0 v -2.666 h -5.998 v -17.327 h -2.666 v 17.327 h -5.997 V 0 Z"
         style="fill:#002f6d;fill-opacity:1;fill-rule:nonzero;stroke:none"
         id="path12" />
    </g>
    <g
       id="g14">
      <g
         id="g16"
         clip-path="url(#clipPath20)">
        <path
           d="m 221.187,232.422 h -2.666 v 13.329 h 2.666 z m -1.333,19.993 c 0.453,0 0.853,-0.16 1.146,-0.479 0.32,-0.294 0.48,-0.694 0.48,-1.147 0,-0.453 -0.16,-0.826 -0.48,-1.12 -0.32,-0.319 -0.693,-0.48 -1.146,-0.48 -0.454,0 -0.827,0.161 -1.12,0.48 -0.32,0.294 -0.48,0.667 -0.48,1.12 0,0.453 0.16,0.827 0.48,1.147 0.293,0.319 0.666,0.479 1.12,0.479"
           style="fill:#002f6d;fill-opacity:1;fill-rule:nonzero;stroke:none"
           id="path22" />
        <g
           id="g24"
           transform="translate(233.5825,241.939)">
          <path
             d="m 0,0 c -0.773,0.773 -1.706,1.146 -2.799,1.146 -1.093,0 -1.999,-0.373 -2.772,-1.119 -0.773,-0.747 -1.2,-1.653 -1.226,-2.719 V -9.517 H -9.463 V 3.812 h 1.333 l 1.333,-1.333 c 1.199,0.88 2.532,1.333 3.998,1.333 2.186,0 3.972,-0.88 5.331,-2.666 1.333,1.786 3.119,2.666 5.332,2.666 1.839,0 3.412,-0.64 4.718,-1.946 1.307,-1.306 1.946,-2.879 1.946,-4.719 v -6.664 h -2.666 v 6.664 c 0,1.094 -0.399,2.053 -1.173,2.826 C 9.917,0.747 8.957,1.146 7.864,1.146 6.771,1.146 5.812,0.747 5.038,-0.027 4.266,-0.8 3.865,-1.759 3.865,-2.853 V -9.517 H 1.2 v 6.664 C 1.2,-1.706 0.8,-0.773 0,0"
             style="fill:#002f6d;fill-opacity:1;fill-rule:nonzero;stroke:none"
             id="path26" />
        </g>
        <g
           id="g28"
           transform="translate(213.2129,210.5854)">
          <path
             d="M 0,0 C 1.413,1.413 2.132,3.146 2.132,5.172 2.132,7.198 1.413,8.93 0,10.37 c -1.439,1.413 -3.172,2.132 -5.198,2.132 H -9.863 V -2.159 h 4.665 c 2.026,0 3.759,0.72 5.198,2.159 m -5.198,-4.825 h -7.331 v 19.993 h 7.331 c 2.745,0 5.118,-0.986 7.064,-2.932 C 3.812,10.29 4.798,7.917 4.798,5.172 4.798,2.426 3.812,0.054 1.866,-1.893 -0.08,-3.838 -2.453,-4.825 -5.198,-4.825"
             style="fill:#002f6d;fill-opacity:1;fill-rule:nonzero;stroke:none"
             id="path30" />
        </g>
        <g
           id="g32"
           transform="translate(227.8774,208.4263)">
          <path
             d="m 0,0 c 1.093,0 2.053,0.4 2.826,1.173 0.773,0.773 1.173,1.733 1.173,2.826 0,1.093 -0.4,2.052 -1.173,2.825 C 2.053,7.598 1.093,7.997 0,7.997 -1.093,7.997 -2.053,7.598 -2.826,6.824 -3.599,6.051 -3.999,5.092 -3.999,3.999 c 0,-1.093 0.4,-2.053 1.173,-2.826 C -2.053,0.4 -1.093,0 0,0 m 0,-2.666 c -1.839,0 -3.412,0.64 -4.718,1.946 -1.306,1.306 -1.946,2.879 -1.946,4.719 0,1.839 0.64,3.412 1.946,4.718 1.306,1.306 2.879,1.946 4.718,1.946 1.466,0 2.799,-0.453 3.999,-1.333 v 1.333 H 6.664 V -2.666 H 5.332 L 3.999,-1.333 C 2.826,-2.212 1.493,-2.666 0,-2.666"
             style="fill:#002f6d;fill-opacity:1;fill-rule:nonzero;stroke:none"
             id="path34" />
        </g>
        <g
           id="g36"
           transform="translate(240.4097,212.585)">
          <path
             d="M 0,0 V -6.824 H -2.666 V 6.504 h 1.333 L 0,5.171 c 1.199,0.88 2.532,1.333 3.998,1.333 1.84,0 3.412,-0.639 4.719,-1.945 1.305,-1.307 1.945,-2.88 1.945,-4.719 V -6.824 H 7.997 v 6.664 c 0,1.093 -0.4,2.053 -1.173,2.826 C 6.051,3.439 5.091,3.838 3.998,3.838 2.905,3.838 1.999,3.465 1.226,2.719 0.453,1.973 0.026,1.066 0,0"
             style="fill:#002f6d;fill-opacity:1;fill-rule:nonzero;stroke:none"
             id="path38" />
        </g>
        <path
           d="m 256.672,205.761 h -2.666 v 13.329 h 2.666 z"
           style="fill:#002f6d;fill-opacity:1;fill-rule:nonzero;stroke:none"
           id="path40" />
        <g
           id="g42"
           transform="translate(262.6978,203.0415)">
          <path
             d="M 0,0 C 0.453,-0.08 0.72,0.08 0.853,0.507 0.986,0.96 0.826,1.227 0.373,1.36 l -0.667,0.186 0.24,1.013 c -1.226,0.08 -2.213,0.64 -2.985,1.627 l 2.212,1.465 c 0.266,-0.346 0.64,-0.533 1.146,-0.506 0.507,0.027 0.854,0.267 1.067,0.667 0.186,0.346 0.24,0.692 0.16,1.039 -0.08,0.347 -0.294,0.613 -0.64,0.773 l -2.213,1.2 c -0.986,0.533 -1.626,1.333 -1.919,2.372 -0.294,1.067 -0.186,2.079 0.373,3.066 0.693,1.28 1.787,1.946 3.252,1.999 1.44,0.08 2.613,-0.48 3.519,-1.653 L 1.706,13.142 c -0.267,0.347 -0.641,0.533 -1.146,0.506 -0.507,-0.026 -0.854,-0.266 -1.067,-0.666 -0.186,-0.346 -0.24,-0.693 -0.16,-1.04 0.08,-0.346 0.293,-0.612 0.64,-0.773 L 2.186,9.97 C 3.172,9.437 3.812,8.637 4.104,7.598 4.398,6.531 4.291,5.518 3.731,4.532 3.225,3.599 2.452,2.986 1.439,2.692 L 1.359,2.399 C 2.186,1.839 2.452,1.093 2.186,0.133 2.052,-0.426 1.732,-0.826 1.226,-1.119 0.746,-1.413 0.213,-1.466 -0.347,-1.333 c -0.507,0.16 -0.933,0.454 -1.226,0.907 L -0.427,0.32 C -0.347,0.187 -0.187,0.08 0,0"
             style="fill:#002f6d;fill-opacity:1;fill-rule:nonzero;stroke:none"
             id="path44" />
        </g>
        <g
           id="g46"
           transform="translate(279.6265,215.2773)">
          <path
             d="m 0,0 c -0.772,0.773 -1.706,1.146 -2.799,1.146 -1.093,0 -1.999,-0.373 -2.772,-1.119 -0.773,-0.747 -1.2,-1.653 -1.226,-2.719 V -9.517 H -9.463 V 3.812 h 1.333 l 1.333,-1.333 c 1.199,0.88 2.532,1.333 3.998,1.333 2.186,0 3.972,-0.88 5.331,-2.666 1.333,1.786 3.119,2.666 5.332,2.666 1.839,0 3.412,-0.64 4.718,-1.946 1.307,-1.306 1.946,-2.879 1.946,-4.719 v -6.664 h -2.666 v 6.664 c 0,1.094 -0.399,2.053 -1.173,2.826 C 9.917,0.747 8.957,1.146 7.864,1.146 6.771,1.146 5.812,0.747 5.038,-0.027 4.266,-0.8 3.865,-1.759 3.865,-2.853 V -9.517 H 1.2 v 6.664 C 1.2,-1.706 0.8,-0.773 0,0"
             style="fill:#002f6d;fill-opacity:1;fill-rule:nonzero;stroke:none"
             id="path48" />
        </g>
        <g
           id="g50"
           transform="translate(304.022,208.4263)">
          <path
             d="m 0,0 c 1.093,0 2.053,0.4 2.826,1.173 0.773,0.773 1.173,1.733 1.173,2.826 0,1.093 -0.4,2.052 -1.173,2.825 C 2.053,7.598 1.093,7.997 0,7.997 -1.093,7.997 -2.053,7.598 -2.825,6.824 -3.599,6.051 -3.998,5.092 -3.998,3.999 -3.998,2.906 -3.599,1.946 -2.825,1.173 -2.053,0.4 -1.093,0 0,0 m 0,-2.666 c -1.839,0 -3.412,0.64 -4.718,1.946 -1.306,1.306 -1.946,2.879 -1.946,4.719 0,1.839 0.64,3.412 1.946,4.718 1.306,1.306 2.879,1.946 4.718,1.946 1.466,0 2.799,-0.453 3.999,-1.333 v 1.333 H 6.664 V -2.666 H 5.331 L 3.999,-1.333 C 2.826,-2.212 1.493,-2.666 0,-2.666"
             style="fill:#002f6d;fill-opacity:1;fill-rule:nonzero;stroke:none"
             id="path52" />
        </g>
        <g
           id="g54"
           transform="translate(316.5542,212.585)">
          <path
             d="M 0,0 V -6.824 H -2.666 V 6.504 h 1.333 L 0,5.171 c 1.199,0.88 2.532,1.333 3.998,1.333 1.84,0 3.412,-0.639 4.719,-1.945 1.305,-1.307 1.945,-2.88 1.945,-4.719 V -6.824 H 7.997 v 6.664 c 0,1.093 -0.4,2.053 -1.173,2.826 C 6.051,3.439 5.091,3.838 3.998,3.838 2.905,3.838 1.999,3.465 1.226,2.719 0.453,1.973 0.026,1.066 0,0"
             style="fill:#002f6d;fill-opacity:1;fill-rule:nonzero;stroke:none"
             id="path56" />
        </g>
        <path
           d="m 333.084,205.761 h -2.666 v 19.993 h 2.666 z"
           style="fill:#002f6d;fill-opacity:1;fill-rule:nonzero;stroke:none"
           id="path58" />
        <path
           d="m 338.95,205.761 h -2.666 v 13.329 h 2.666 z"
           style="fill:#002f6d;fill-opacity:1;fill-rule:nonzero;stroke:none"
           id="path60" />
        <g
           id="g62"
           transform="translate(350.4653,205.7607)">
          <path
             d="M 0,0 -3.892,4.905 -5.917,2.346 V 0 h -2.666 v 19.993 h 2.666 V 6.664 l 5.277,6.665 H 2.772 L -2.186,7.064 3.412,0 Z"
             style="fill:#002f6d;fill-opacity:1;fill-rule:nonzero;stroke:none"
             id="path64" />
        </g>
        <g
           id="g66"
           transform="translate(136.8252,231.6538)">
          <path
             d="m 0,0 c 2.17,-1.656 3.712,-4.358 3.712,-8.241 v -0.062 c 0,-3.971 -0.01,-16.279 0,-19.516 0.096,-29.212 40.852,-11.707 40.512,21.408 -0.231,22.511 -18.25,40.763 -40.763,40.763 -22.512,0 -41.033,-18.25 -41.033,-40.763"
             style="fill:none;stroke:#ff8400;stroke-width:3.809;stroke-linecap:round;stroke-linejoin:round;stroke-miterlimit:10;stroke-dasharray:none;stroke-opacity:1"
             id="path68" />
        </g>
        <g
           id="g70"
           transform="translate(133.8335,220.2773)">
          <path
             d="M 0,0 H 14.875"
             style="fill:none;stroke:#ff8400;stroke-width:3.809;stroke-linecap:round;stroke-linejoin:round;stroke-miterlimit:10;stroke-dasharray:none;stroke-opacity:1"
             id="path72" />
        </g>
      </g>
    </g>
  </g>
</svg>
