<?xml version="1.0" encoding="UTF-8" standalone="no"?>
<!-- Created with Inkscape (http://www.inkscape.org/) -->

<svg
   version="1.1"
   id="svg2"
   width="606.66669"
   height="606.66669"
   viewBox="0 0 606.66669 606.66669"
   sodipodi:docname="tim_logo_eng.ai"
   xmlns:inkscape="http://www.inkscape.org/namespaces/inkscape"
   xmlns:sodipodi="http://sodipodi.sourceforge.net/DTD/sodipodi-0.dtd"
   xmlns="http://www.w3.org/2000/svg"
   xmlns:svg="http://www.w3.org/2000/svg">
  <defs
     id="defs6">
    <clipPath
       clipPathUnits="userSpaceOnUse"
       id="clipPath20">
      <path
         d="M 0,455 H 455 V 0 H 0 Z"
         id="path18" />
    </clipPath>
  </defs>
  <sodipodi:namedview
     id="namedview4"
     pagecolor="#ffffff"
     bordercolor="#000000"
     borderopacity="0.25"
     inkscape:showpageshadow="2"
     inkscape:pageopacity="0.0"
     inkscape:pagecheckerboard="0"
     inkscape:deskcolor="#d1d1d1" />
  <g
     id="g8"
     inkscape:groupmode="layer"
     inkscape:label="tim_logo_eng"
     transform="matrix(1.3333333,0,0,-1.3333333,0,606.66667)">
    <g
       id="g10"
       transform="translate(215.345,252.415)">
      <path
         d="m 0,0 v -2.666 h -5.997 v -17.327 h -2.666 v 17.327 h -5.998 V 0 Z"
         style="fill:#002f6d;fill-opacity:1;fill-rule:nonzero;stroke:none"
         id="path12" />
    </g>
    <g
       id="g14">
      <g
         id="g16"
         clip-path="url(#clipPath20)">
        <path
           d="m 221.187,232.422 h -2.666 v 13.329 h 2.666 z m -1.333,19.993 c 0.453,0 0.852,-0.16 1.146,-0.479 0.32,-0.294 0.48,-0.694 0.48,-1.147 0,-0.453 -0.16,-0.826 -0.48,-1.12 -0.32,-0.319 -0.693,-0.48 -1.146,-0.48 -0.453,0 -0.826,0.161 -1.12,0.48 -0.32,0.294 -0.48,0.667 -0.48,1.12 0,0.453 0.16,0.827 0.48,1.147 0.294,0.319 0.667,0.479 1.12,0.479"
           style="fill:#002f6d;fill-opacity:1;fill-rule:nonzero;stroke:none"
           id="path22" />
        <g
           id="g24"
           transform="translate(233.5823,241.939)">
          <path
             d="m 0,0 c -0.772,0.773 -1.706,1.146 -2.799,1.146 -1.093,0 -1.999,-0.373 -2.772,-1.119 -0.773,-0.747 -1.2,-1.653 -1.226,-2.719 V -9.517 H -9.463 V 3.812 h 1.333 l 1.333,-1.333 c 1.199,0.88 2.532,1.333 3.998,1.333 2.187,0 3.972,-0.88 5.331,-2.666 1.333,1.786 3.119,2.666 5.332,2.666 1.839,0 3.412,-0.64 4.718,-1.946 1.307,-1.306 1.946,-2.879 1.946,-4.719 v -6.664 h -2.666 v 6.664 c 0,1.094 -0.399,2.053 -1.173,2.826 C 9.917,0.747 8.957,1.146 7.864,1.146 6.771,1.146 5.812,0.747 5.038,-0.027 4.266,-0.8 3.865,-1.759 3.865,-2.853 V -9.517 H 1.2 v 6.664 C 1.2,-1.706 0.8,-0.773 0,0"
             style="fill:#002f6d;fill-opacity:1;fill-rule:nonzero;stroke:none"
             id="path26" />
        </g>
        <g
           id="g28"
           transform="translate(205.509,210.5854)">
          <path
             d="m 0,0 c 1.413,-1.439 3.146,-2.159 5.171,-2.159 2.026,0 3.759,0.72 5.172,2.159 l 1.892,-1.893 c -1.946,-1.945 -4.292,-2.932 -7.064,-2.932 -2.745,0 -5.118,0.987 -7.064,2.932 -1.946,1.947 -2.932,4.319 -2.932,7.065 0,2.772 0.986,5.118 2.932,7.064 1.946,1.946 4.319,2.932 7.064,2.932 2.772,0 5.118,-0.986 7.064,-2.932 L 10.343,10.343 C 8.93,11.783 7.197,12.502 5.171,12.502 3.146,12.502 1.413,11.783 0,10.343 -1.439,8.93 -2.159,7.198 -2.159,5.172 -2.159,3.146 -1.439,1.413 0,0"
             style="fill:#002f6d;fill-opacity:1;fill-rule:nonzero;stroke:none"
             id="path30" />
        </g>
        <g
           id="g32"
           transform="translate(227.638,208.4263)">
          <path
             d="M 0,0 C 1.093,0 2.053,0.4 2.825,1.173 3.599,1.946 3.998,2.906 3.998,3.999 3.998,5.092 3.599,6.051 2.825,6.824 2.053,7.598 1.093,7.997 0,7.997 -1.093,7.997 -2.053,7.598 -2.826,6.824 -3.599,6.051 -3.999,5.092 -3.999,3.999 c 0,-1.093 0.4,-2.053 1.173,-2.826 C -2.053,0.4 -1.093,0 0,0 m 0,10.663 c 1.839,0 3.412,-0.64 4.718,-1.946 C 6.024,7.411 6.664,5.838 6.664,3.999 6.664,2.159 6.024,0.586 4.718,-0.72 3.412,-2.026 1.839,-2.666 0,-2.666 c -1.84,0 -3.412,0.64 -4.719,1.946 -1.305,1.306 -1.945,2.879 -1.945,4.719 0,1.839 0.64,3.412 1.945,4.718 1.307,1.306 2.879,1.946 4.719,1.946"
             style="fill:#002f6d;fill-opacity:1;fill-rule:nonzero;stroke:none"
             id="path34" />
        </g>
        <g
           id="g36"
           transform="translate(240.1692,212.585)">
          <path
             d="M 0,0 V -6.824 H -2.666 V 6.504 h 1.333 L 0,5.171 c 1.199,0.88 2.532,1.333 3.998,1.333 1.84,0 3.412,-0.639 4.719,-1.945 1.305,-1.307 1.945,-2.88 1.945,-4.719 V -6.824 H 7.997 v 6.664 c 0,1.093 -0.4,2.053 -1.173,2.826 C 6.051,3.439 5.091,3.838 3.998,3.838 2.905,3.838 1.999,3.465 1.226,2.719 0.453,1.973 0.026,1.066 0,0"
             style="fill:#002f6d;fill-opacity:1;fill-rule:nonzero;stroke:none"
             id="path38" />
        </g>
        <g
           id="g40"
           transform="translate(254.1936,214.2378)">
          <path
             d="m 0,0 c -0.294,1.066 -0.187,2.079 0.373,3.065 0.693,1.28 1.786,1.946 3.252,2 1.439,0.08 2.612,-0.48 3.519,-1.653 L 4.932,1.946 C 4.665,2.292 4.291,2.479 3.785,2.452 3.278,2.426 2.932,2.186 2.719,1.786 2.532,1.439 2.479,1.093 2.559,0.746 2.639,0.4 2.852,0.133 3.198,-0.027 l 2.213,-1.2 C 6.397,-1.759 7.037,-2.559 7.33,-3.599 7.624,-4.665 7.517,-5.678 6.957,-6.665 6.264,-7.944 5.171,-8.61 3.705,-8.664 2.266,-8.744 1.093,-8.184 0.187,-7.011 l 2.211,1.466 c 0.267,-0.346 0.64,-0.533 1.147,-0.506 0.507,0.027 0.853,0.266 1.066,0.666 0.187,0.347 0.241,0.693 0.16,1.04 -0.08,0.346 -0.292,0.613 -0.639,0.773 L 1.919,-2.373 C 0.933,-1.839 0.293,-1.04 0,0"
             style="fill:#002f6d;fill-opacity:1;fill-rule:nonzero;stroke:none"
             id="path42" />
        </g>
        <g
           id="g44"
           transform="translate(275.5471,212.2651)">
          <path
             d="M 0,0 V 6.824 H 2.665 V -6.504 H 1.332 L 0,-5.171 c -1.2,-0.88 -2.533,-1.333 -3.999,-1.333 -1.839,0 -3.412,0.639 -4.718,1.945 -1.306,1.307 -1.946,2.879 -1.946,4.719 v 6.664 h 2.666 V 0.16 c 0,-1.093 0.399,-2.053 1.173,-2.826 0.772,-0.773 1.732,-1.173 2.825,-1.173 1.093,0 1.999,0.374 2.772,1.12 0.774,0.746 1.2,1.653 1.227,2.719"
             style="fill:#002f6d;fill-opacity:1;fill-rule:nonzero;stroke:none"
             id="path46" />
        </g>
        <path
           d="m 284.08,205.761 h -2.666 v 19.993 h 2.666 z"
           style="fill:#002f6d;fill-opacity:1;fill-rule:nonzero;stroke:none"
           id="path48" />
        <g
           id="g50"
           transform="translate(292.6106,219.0894)">
          <path
             d="m 0,0 v -2.666 h -2.665 v -4.985 c 0,-0.826 0.293,-1.546 0.879,-2.132 0.587,-0.587 1.28,-0.88 2.106,-0.88 v -2.666 c -1.573,0 -2.906,0.56 -3.999,1.653 -1.092,1.093 -1.652,2.452 -1.652,4.025 V 6.664 h 2.666 l 0,-6.664 z"
             style="fill:#002f6d;fill-opacity:1;fill-rule:nonzero;stroke:none"
             id="path52" />
        </g>
        <g
           id="g54"
           transform="translate(302.7952,208.4263)">
          <path
             d="m 0,0 c 1.093,0 2.053,0.4 2.826,1.173 0.773,0.773 1.173,1.733 1.173,2.826 0,1.093 -0.4,2.052 -1.173,2.825 C 2.053,7.598 1.093,7.997 0,7.997 -1.093,7.997 -2.053,7.598 -2.825,6.824 -3.599,6.051 -3.998,5.092 -3.998,3.999 -3.998,2.906 -3.599,1.946 -2.825,1.173 -2.053,0.4 -1.093,0 0,0 m 0,-2.666 c -1.839,0 -3.412,0.64 -4.718,1.946 -1.306,1.306 -1.946,2.879 -1.946,4.719 0,1.839 0.64,3.412 1.946,4.718 1.306,1.306 2.879,1.946 4.718,1.946 1.466,0 2.799,-0.453 3.999,-1.333 v 1.333 H 6.664 V -2.666 H 5.331 L 3.999,-1.333 C 2.826,-2.212 1.493,-2.666 0,-2.666"
             style="fill:#002f6d;fill-opacity:1;fill-rule:nonzero;stroke:none"
             id="path56" />
        </g>
        <g
           id="g58"
           transform="translate(315.3264,212.585)">
          <path
             d="M 0,0 V -6.824 H -2.666 V 6.504 h 1.333 L 0,5.171 c 1.199,0.88 2.532,1.333 3.998,1.333 1.84,0 3.412,-0.639 4.719,-1.945 1.305,-1.307 1.945,-2.88 1.945,-4.719 V -6.824 H 7.997 v 6.664 c 0,1.093 -0.4,2.053 -1.173,2.826 C 6.051,3.439 5.091,3.838 3.998,3.838 2.905,3.838 1.999,3.465 1.226,2.719 0.453,1.973 0.026,1.066 0,0"
             style="fill:#002f6d;fill-opacity:1;fill-rule:nonzero;stroke:none"
             id="path60" />
        </g>
        <g
           id="g62"
           transform="translate(340.5735,217.1436)">
          <path
             d="m 0,0 -1.893,-1.893 c -0.773,0.773 -1.733,1.173 -2.826,1.173 -1.093,0 -2.052,-0.4 -2.825,-1.173 -0.773,-0.773 -1.173,-1.732 -1.173,-2.826 0,-1.093 0.4,-2.052 1.173,-2.825 0.773,-0.773 1.732,-1.173 2.825,-1.173 1.093,0 2.053,0.4 2.826,1.173 L 0,-9.437 c -1.307,-1.306 -2.879,-1.946 -4.719,-1.946 -1.839,0 -3.412,0.64 -4.718,1.946 -1.306,1.306 -1.946,2.879 -1.946,4.718 0,1.84 0.64,3.412 1.946,4.719 1.306,1.306 2.879,1.946 4.718,1.946 1.84,0 3.412,-0.64 4.719,-1.946"
             style="fill:#002f6d;fill-opacity:1;fill-rule:nonzero;stroke:none"
             id="path64" />
        </g>
        <g
           id="g66"
           transform="translate(345.5598,199.0967)">
          <path
             d="M 0,0 2.879,6.664 -2.905,19.993 H 0 l 4.346,-9.97 4.291,9.97 h 2.906 L 2.906,0 Z"
             style="fill:#002f6d;fill-opacity:1;fill-rule:nonzero;stroke:none"
             id="path68" />
        </g>
        <g
           id="g70"
           transform="translate(136.8255,231.6538)">
          <path
             d="m 0,0 c 2.17,-1.656 3.712,-4.358 3.712,-8.241 v -0.062 c 0,-3.971 -0.01,-16.279 0,-19.516 0.096,-29.212 40.852,-11.707 40.512,21.408 -0.232,22.511 -18.25,40.763 -40.763,40.763 -22.512,0 -41.033,-18.25 -41.033,-40.763"
             style="fill:none;stroke:#ff8400;stroke-width:3.809;stroke-linecap:round;stroke-linejoin:round;stroke-miterlimit:10;stroke-dasharray:none;stroke-opacity:1"
             id="path72" />
        </g>
        <g
           id="g74"
           transform="translate(133.8333,220.2773)">
          <path
             d="M 0,0 H 14.875"
             style="fill:none;stroke:#ff8400;stroke-width:3.809;stroke-linecap:round;stroke-linejoin:round;stroke-miterlimit:10;stroke-dasharray:none;stroke-opacity:1"
             id="path76" />
        </g>
      </g>
    </g>
  </g>
</svg>
